<svg width="62" height="62" viewBox="0 0 62 62" fill="none" xmlns="http://www.w3.org/2000/svg">
<circle cx="31" cy="31" r="31" fill="white"/>
<path d="M29.1126 47.2938C18.8963 32.8947 17 31.4169 17 26.125C17 18.8762 23.0441 13 30.5 13C37.9559 13 44 18.8762 44 26.125C44 31.4169 42.1037 32.8947 31.8874 47.2938C31.217 48.2354 29.783 48.2354 29.1126 47.2938ZM30.5 31.5937C33.6066 31.5937 36.125 29.1453 36.125 26.125C36.125 23.1047 33.6066 20.6562 30.5 20.6562C27.3934 20.6562 24.875 23.1047 24.875 26.125C24.875 29.1453 27.3934 31.5937 30.5 31.5937Z" fill="black"/>
</svg>
