<svg width="231" height="48" viewBox="0 0 231 48" fill="none" xmlns="http://www.w3.org/2000/svg">
<path d="M31.8493 25.0013C31.8722 23.1999 32.3453 21.4337 33.2244 19.8669C34.1035 18.3001 35.3602 16.9837 36.8774 16.0402C35.9135 14.6478 34.642 13.5019 33.1637 12.6935C31.6855 11.8852 30.0412 11.4366 28.3616 11.3834C24.7787 11.003 21.3052 13.5521 19.4794 13.5521C17.6183 13.5521 14.8072 11.4212 11.7801 11.4842C9.82208 11.5482 7.91385 12.1241 6.24132 13.1559C4.56879 14.1876 3.189 15.64 2.23639 17.3716C-1.89011 24.5982 1.18789 35.219 5.14073 41.0605C7.11842 43.9209 9.42977 47.116 12.4541 47.0027C15.4136 46.8786 16.519 45.0938 20.0914 45.0938C23.6306 45.0938 24.6676 47.0027 27.7533 46.9307C30.929 46.8785 32.9299 44.0576 34.8382 41.1701C36.2591 39.1319 37.3526 36.8793 38.078 34.4957C36.233 33.7064 34.6585 32.3852 33.5509 30.6968C32.4432 29.0084 31.8514 27.0276 31.8493 25.0013Z" fill="white"/>
<path d="M26.0203 7.54186C27.7518 5.4393 28.6049 2.7368 28.3983 0.00830078C25.7529 0.289347 23.3093 1.56822 21.5544 3.59012C20.6964 4.57787 20.0392 5.72699 19.6205 6.97179C19.2018 8.21659 19.0297 9.53266 19.1141 10.8448C20.4373 10.8586 21.7463 10.5685 22.9426 9.99634C24.1388 9.42422 25.1912 8.58499 26.0203 7.54186Z" fill="white"/>
<path d="M86.6536 32.685H76.5542L74.1288 39.929H69.8511L79.4171 13.1281H83.8615L93.4276 39.929H89.0769L86.6536 32.685ZM77.6002 29.3422H85.6057L81.6592 17.5858H81.5488L77.6002 29.3422Z" fill="white"/>
<path d="M114.085 30.1598C114.085 36.2319 110.872 40.1332 106.023 40.1332C104.795 40.1981 103.573 39.912 102.498 39.3074C101.424 38.7027 100.539 37.8042 99.9451 36.7145H99.8534V46.3928H95.8882V20.3887H99.7263V23.6387H99.7993C100.42 22.5543 101.32 21.6604 102.403 21.0521C103.486 20.4438 104.712 20.1439 105.95 20.1843C110.853 20.1843 114.085 24.1045 114.085 30.1598ZM110.009 30.1598C110.009 26.2037 107.988 23.6029 104.904 23.6029C101.875 23.6029 99.8368 26.2585 99.8368 30.1598C99.8368 34.0969 101.875 36.7335 104.904 36.7335C107.988 36.7335 110.009 34.1517 110.009 30.1598Z" fill="white"/>
<path d="M135.348 30.1598C135.348 36.2319 132.135 40.1331 127.286 40.1331C126.058 40.1981 124.837 39.9119 123.762 39.3073C122.687 38.7027 121.802 37.8042 121.208 36.7145H121.117V46.3928H117.151V20.3887H120.989V23.6387H121.062C121.683 22.5543 122.583 21.6603 123.666 21.0521C124.749 20.4438 125.975 20.1439 127.213 20.1843C132.116 20.1843 135.348 24.1045 135.348 30.1598ZM131.272 30.1598C131.272 26.2037 129.251 23.6029 126.167 23.6029C123.138 23.6029 121.1 26.2585 121.1 30.1598C121.1 34.0968 123.138 36.7335 126.167 36.7335C129.251 36.7335 131.272 34.1516 131.272 30.1598H131.272Z" fill="white"/>
<path d="M149.402 32.461C149.696 35.1188 152.248 36.8638 155.736 36.8638C159.078 36.8638 161.483 35.1187 161.483 32.7223C161.483 30.642 160.033 29.3965 156.599 28.5428L153.165 27.7061C148.3 26.5174 146.041 24.2158 146.041 20.4811C146.041 15.8569 150.025 12.6807 155.682 12.6807C161.281 12.6807 165.119 15.8569 165.248 20.4811H161.245C161.006 17.8065 158.82 16.192 155.626 16.192C152.431 16.192 150.246 17.8255 150.246 20.2029C150.246 22.0976 151.642 23.2126 155.057 24.0661L157.976 24.7911C163.412 26.0916 165.671 28.3004 165.671 32.2206C165.671 37.2347 161.722 40.3751 155.442 40.3751C149.566 40.3751 145.599 37.3084 145.343 32.4608L149.402 32.461Z" fill="white"/>
<path d="M174.227 15.7642V20.3883H177.901V23.5646H174.227V34.3367C174.227 36.0102 174.963 36.79 176.578 36.79C177.014 36.7823 177.449 36.7514 177.882 36.6972V39.8545C177.156 39.9917 176.418 40.0539 175.68 40.04C171.769 40.04 170.243 38.5541 170.243 34.7645V23.5646H167.435V20.3883H170.243V15.7642H174.227Z" fill="white"/>
<path d="M180.027 30.1593C180.027 24.0113 183.607 20.1479 189.189 20.1479C194.79 20.1479 198.353 24.0112 198.353 30.1593C198.353 36.3241 194.809 40.1706 189.189 40.1706C183.572 40.1706 180.027 36.3241 180.027 30.1593ZM194.313 30.1593C194.313 25.9419 192.402 23.4527 189.189 23.4527C185.976 23.4527 184.068 25.9608 184.068 30.1593C184.068 34.3935 185.976 36.8637 189.189 36.8637C192.402 36.8637 194.313 34.3935 194.313 30.1593H194.313Z" fill="white"/>
<path d="M201.624 20.3885H205.405V23.7144H205.497C205.753 22.6756 206.355 21.7577 207.201 21.1148C208.047 20.4719 209.086 20.1432 210.144 20.1841C210.601 20.1824 211.056 20.2326 211.502 20.3337V24.0853C210.925 23.907 210.324 23.8251 209.721 23.843C209.145 23.8193 208.57 23.922 208.037 24.1441C207.504 24.3662 207.025 24.7023 206.632 25.1294C206.24 25.5565 205.943 26.0644 205.763 26.6184C205.583 27.1723 205.523 27.7591 205.589 28.3385V39.9285H201.624L201.624 20.3885Z" fill="white"/>
<path d="M229.784 34.1891C229.25 37.7362 225.835 40.1706 221.466 40.1706C215.846 40.1706 212.358 36.3621 212.358 30.252C212.358 24.123 215.865 20.1479 221.299 20.1479C226.643 20.1479 230.004 23.8616 230.004 29.7862V31.1604H216.361V31.4028C216.298 32.1219 216.387 32.8463 216.622 33.528C216.857 34.2097 217.233 34.8329 217.724 35.3564C218.216 35.8799 218.812 36.2916 219.472 36.5642C220.133 36.8368 220.844 36.964 221.557 36.9374C222.494 37.0262 223.435 36.8067 224.238 36.3116C225.042 35.8164 225.666 35.072 226.018 34.1891L229.784 34.1891ZM216.379 28.3572H226.037C226.073 27.7106 225.976 27.0636 225.752 26.4567C225.529 25.8497 225.184 25.2961 224.739 24.8304C224.294 24.3647 223.759 23.9971 223.167 23.7506C222.575 23.5041 221.939 23.384 221.299 23.3979C220.653 23.394 220.013 23.5195 219.416 23.7672C218.818 24.0148 218.275 24.3797 217.818 24.8408C217.36 25.3018 216.998 25.85 216.751 26.4535C216.504 27.0571 216.378 27.7041 216.379 28.3572V28.3572Z" fill="white"/>
</svg>
