<svg width="289" height="87" viewBox="0 0 289 87" fill="none" xmlns="http://www.w3.org/2000/svg">
<path d="M265.986 0.00028057H23.0272C22.1415 0.00028057 21.2665 0.00028057 20.3833 0.00459703C19.6439 0.00891349 18.9104 0.0214528 18.1639 0.0320065C16.5422 0.0490605 14.9243 0.176557 13.3243 0.413387C11.7265 0.655374 10.1788 1.11159 8.73351 1.7666C7.28996 2.42715 5.97095 3.28547 4.82432 4.31042C3.67167 5.33248 2.71085 6.51385 1.97881 7.8091C1.24474 9.10177 0.735735 10.487 0.469374 11.9169C0.200479 13.345 0.0557848 14.7896 0.0365887 16.2377C0.0141766 16.8994 0.0118098 17.5633 0 18.2251V68.111C0.0118098 68.7811 0.0141766 69.4303 0.0365887 70.1007C0.0557907 71.5487 0.200485 72.9932 0.469374 74.4212C0.735 75.852 1.24403 77.238 1.97881 78.5311C2.71052 79.8222 3.67148 80.9988 4.82432 82.0152C5.9666 83.0447 7.28647 83.9036 8.73351 84.5591C10.1788 85.2158 11.7264 85.6748 13.3243 85.9205C14.9246 86.1554 16.5423 86.283 18.1639 86.3021C18.9104 86.3167 19.6439 86.3252 20.3833 86.3252C21.2665 86.3295 22.1416 86.3295 23.0272 86.3295H265.986C266.854 86.3295 267.736 86.3295 268.604 86.3252C269.34 86.3252 270.094 86.3167 270.83 86.3021C272.449 86.284 274.063 86.1564 275.66 85.9205C277.264 85.673 278.817 85.2142 280.269 84.5591C281.715 83.9032 283.033 83.0443 284.175 82.0152C285.324 80.9948 286.288 79.8191 287.028 78.5311C287.758 77.237 288.262 75.8511 288.523 74.4212C288.793 72.993 288.943 71.5488 288.972 70.1007C288.981 69.4303 288.981 68.7811 288.981 68.111C289 67.3269 289 66.5471 289 65.7503V20.5814C289 19.7911 289 19.007 288.981 18.2251C288.981 17.5633 288.981 16.8994 288.972 16.2376C288.943 14.7894 288.793 13.3451 288.523 11.9168C288.261 10.4877 287.757 9.10262 287.028 7.80901C285.538 5.21283 283.174 3.09955 280.269 1.7664C278.817 1.11299 277.263 0.656901 275.66 0.413193C274.064 0.175319 272.449 0.0477784 270.83 0.0317044C270.094 0.0211722 269.34 0.00852501 268.604 0.00431646C267.736 0 266.854 0 265.986 0V0.00028057Z" fill="#A6A6A6"/>
<path d="M20.3955 84.4405C19.6597 84.4405 18.9416 84.4321 18.2116 84.4174C16.6992 84.3998 15.1904 84.2821 13.6974 84.0654C12.3053 83.8511 10.9568 83.4526 9.69624 82.8829C8.44725 82.3179 7.30808 81.5771 6.32235 80.6888C5.32236 79.811 4.48982 78.7929 3.85772 77.6749C3.21866 76.5495 2.7764 75.3433 2.54633 74.0982C2.29787 72.7604 2.16345 71.4076 2.14421 70.0516C2.1289 69.5964 2.10886 68.0809 2.10886 68.0809V18.2246C2.10886 18.2246 2.13021 16.7323 2.14433 16.2939C2.16275 14.94 2.29639 13.5894 2.5441 12.2536C2.7746 11.0051 3.21721 9.7954 3.85661 8.66639C4.48638 7.5491 5.3143 6.53024 6.30827 5.64929C7.30112 4.75997 8.44394 4.01534 9.69505 3.44256C10.9527 2.8747 12.2987 2.47896 13.688 2.26861C15.1858 2.0497 16.6999 1.93134 18.2175 1.91454L20.3967 1.88818H268.592L270.798 1.91559C272.301 1.93156 273.802 2.04886 275.286 2.2665C276.689 2.47948 278.049 2.87798 279.321 3.44889C281.828 4.60321 283.867 6.42945 285.154 8.67165C285.783 9.79287 286.219 10.9927 286.446 12.2304C286.697 13.5771 286.837 14.9384 286.866 16.3034C286.873 16.9146 286.873 17.5712 286.873 18.2246C286.892 19.0339 286.892 19.8042 286.892 20.5809V65.7498C286.892 66.5339 286.892 67.299 286.873 68.0703C286.873 68.7722 286.873 69.4151 286.864 70.0768C286.835 71.4174 286.697 72.7545 286.451 74.0771C286.225 75.3312 285.786 76.5468 285.147 77.6813C284.51 78.7873 283.682 79.7965 282.694 80.672C281.707 81.565 280.566 82.3102 279.314 82.8788C278.046 83.4529 276.688 83.8529 275.286 84.0654C273.793 84.2833 272.284 84.4009 270.772 84.4174C270.064 84.4321 269.323 84.4405 268.604 84.4405L265.986 84.4448L20.3955 84.4405Z" fill="black"/>
<path d="M52.8492 44.0013C52.8721 42.1999 53.3452 40.4337 54.2243 38.8669C55.1034 37.3001 56.36 35.9837 57.8773 35.0402C56.9134 33.6478 55.6419 32.5019 54.1636 31.6935C52.6854 30.8852 51.0411 30.4366 49.3615 30.3834C45.7786 30.003 42.3051 32.5521 40.4793 32.5521C38.6181 32.5521 35.807 30.4212 32.78 30.4842C30.822 30.5482 28.9137 31.1241 27.2412 32.1559C25.5687 33.1876 24.1889 34.64 23.2363 36.3716C19.1098 43.5982 22.1878 54.219 26.1406 60.0605C28.1183 62.9209 30.4297 66.116 33.454 66.0027C36.4135 65.8786 37.5188 64.0938 41.0912 64.0938C44.6305 64.0938 45.6675 66.0027 48.7532 65.9307C51.9289 65.8785 53.9297 63.0576 55.838 60.1701C57.259 58.1319 58.3524 55.8793 59.0778 53.4957C57.2328 52.7064 55.6584 51.3852 54.5507 49.6968C53.4431 48.0084 52.8513 46.0276 52.8492 44.0013Z" fill="white"/>
<path d="M47.0203 26.5419C48.7518 24.4393 49.6048 21.7368 49.3983 19.0083C46.7529 19.2893 44.3093 20.5682 42.5544 22.5901C41.6963 23.5779 41.0392 24.727 40.6205 25.9718C40.2017 27.2166 40.0297 28.5327 40.1141 29.8448C41.4372 29.8586 42.7463 29.5685 43.9425 28.9963C45.1388 28.4242 46.1911 27.585 47.0203 26.5419Z" fill="white"/>
<path d="M107.653 51.6848H97.554L95.1286 58.9288H90.8509L100.417 32.1279H104.861L114.427 58.9288H110.077L107.653 51.6848ZM98.6 48.3421H106.605L102.659 36.5856H102.549L98.6 48.3421Z" fill="white"/>
<path d="M135.085 49.1598C135.085 55.2319 131.872 59.1332 127.023 59.1332C125.795 59.1981 124.573 58.912 123.498 58.3074C122.423 57.7027 121.539 56.8042 120.945 55.7145H120.853V65.3928H116.888V39.3887H120.726V42.6387H120.799C121.42 41.5543 122.32 40.6604 123.403 40.0521C124.486 39.4438 125.712 39.1439 126.95 39.1843C131.853 39.1843 135.085 43.1045 135.085 49.1598ZM131.009 49.1598C131.009 45.2037 128.988 42.6029 125.904 42.6029C122.875 42.6029 120.837 45.2585 120.837 49.1598C120.837 53.0969 122.875 55.7335 125.904 55.7335C128.988 55.7335 131.009 53.1517 131.009 49.1598Z" fill="white"/>
<path d="M156.348 49.1598C156.348 55.2319 153.135 59.1331 148.286 59.1331C147.058 59.1981 145.836 58.9119 144.761 58.3073C143.686 57.7027 142.802 56.8042 142.208 55.7145H142.116V65.3928H138.151V39.3887H141.989V42.6387H142.062C142.683 41.5543 143.583 40.6603 144.666 40.0521C145.749 39.4438 146.975 39.1439 148.213 39.1843C153.116 39.1843 156.348 43.1045 156.348 49.1598ZM152.272 49.1598C152.272 45.2037 150.251 42.6029 147.167 42.6029C144.138 42.6029 142.1 45.2585 142.1 49.1598C142.1 53.0968 144.138 55.7335 147.167 55.7335C150.251 55.7335 152.272 53.1516 152.272 49.1598H152.272Z" fill="white"/>
<path d="M170.401 51.461C170.695 54.1188 173.248 55.8638 176.736 55.8638C180.078 55.8638 182.483 54.1187 182.483 51.7223C182.483 49.642 181.032 48.3965 177.598 47.5428L174.165 46.7061C169.299 45.5174 167.041 43.2158 167.041 39.4811C167.041 34.8569 171.025 31.6807 176.682 31.6807C182.28 31.6807 186.118 34.8569 186.248 39.4811H182.245C182.005 36.8065 179.82 35.192 176.625 35.192C173.431 35.192 171.245 36.8255 171.245 39.2029C171.245 41.0976 172.641 42.2126 176.056 43.0661L178.976 43.7911C184.412 45.0916 186.671 47.3004 186.671 51.2206C186.671 56.2347 182.722 59.3751 176.442 59.3751C170.566 59.3751 166.599 56.3084 166.342 51.4608L170.401 51.461Z" fill="white"/>
<path d="M195.227 34.7642V39.3883H198.901V42.5646H195.227V53.3367C195.227 55.0102 195.963 55.79 197.578 55.79C198.014 55.7823 198.449 55.7514 198.882 55.6972V58.8545C198.156 58.9917 197.418 59.0539 196.68 59.04C192.769 59.04 191.243 57.5541 191.243 53.7645V42.5646H188.435V39.3883H191.243V34.7642H195.227Z" fill="white"/>
<path d="M201.027 49.1593C201.027 43.0113 204.607 39.1479 210.189 39.1479C215.79 39.1479 219.353 43.0112 219.353 49.1593C219.353 55.3241 215.808 59.1706 210.189 59.1706C204.571 59.1706 201.027 55.3241 201.027 49.1593ZM215.312 49.1593C215.312 44.9419 213.402 42.4527 210.189 42.4527C206.976 42.4527 205.067 44.9608 205.067 49.1593C205.067 53.3935 206.976 55.8637 210.189 55.8637C213.402 55.8637 215.312 53.3935 215.312 49.1593H215.312Z" fill="white"/>
<path d="M222.623 39.3885H226.405V42.7144H226.497C226.753 41.6756 227.354 40.7577 228.2 40.1148C229.047 39.4719 230.086 39.1432 231.143 39.1841C231.6 39.1824 232.056 39.2326 232.502 39.3337V43.0853C231.925 42.907 231.323 42.8251 230.72 42.843C230.144 42.8193 229.57 42.922 229.037 43.1441C228.504 43.3662 228.024 43.7023 227.632 44.1294C227.239 44.5565 226.943 45.0644 226.763 45.6184C226.583 46.1723 226.523 46.7591 226.588 47.3385V58.9285H222.623L222.623 39.3885Z" fill="white"/>
<path d="M250.783 53.1891C250.25 56.7362 246.835 59.1706 242.465 59.1706C236.846 59.1706 233.358 55.3621 233.358 49.252C233.358 43.123 236.864 39.1479 242.299 39.1479C247.643 39.1479 251.004 42.8616 251.004 48.7862V50.1604H237.36V50.4028C237.297 51.1219 237.386 51.8463 237.621 52.528C237.856 53.2097 238.232 53.8329 238.724 54.3564C239.215 54.8799 239.811 55.2916 240.472 55.5642C241.133 55.8368 241.844 55.964 242.557 55.9374C243.494 56.0262 244.434 55.8067 245.238 55.3116C246.042 54.8164 246.666 54.072 247.018 53.1891L250.783 53.1891ZM237.379 47.3572H247.037C247.072 46.7106 246.975 46.0636 246.752 45.4567C246.529 44.8497 246.184 44.2961 245.739 43.8304C245.294 43.3647 244.759 42.9971 244.167 42.7506C243.575 42.5041 242.939 42.384 242.299 42.3979C241.653 42.394 241.013 42.5195 240.415 42.7672C239.818 43.0148 239.275 43.3797 238.817 43.8408C238.36 44.3018 237.997 44.85 237.75 45.4535C237.504 46.0571 237.377 46.7041 237.379 47.3572V47.3572Z" fill="white"/>
</svg>
