<svg width="62" height="62" viewBox="0 0 62 62" fill="none" xmlns="http://www.w3.org/2000/svg">
<circle cx="31" cy="31" r="31" fill="white"/>
<path d="M42.7857 17.375H39.5714V13.8203C39.5714 13.3691 39.2098 13 38.7679 13H36.0893C35.6473 13 35.2857 13.3691 35.2857 13.8203V17.375H26.7143V13.8203C26.7143 13.3691 26.3527 13 25.9107 13H23.2321C22.7902 13 22.4286 13.3691 22.4286 13.8203V17.375H19.2143C17.4397 17.375 16 18.8447 16 20.6562V44.7188C16 46.5303 17.4397 48 19.2143 48H42.7857C44.5603 48 46 46.5303 46 44.7188V20.6562C46 18.8447 44.5603 17.375 42.7857 17.375ZM42.3839 44.7188H19.6161C19.3951 44.7188 19.2143 44.5342 19.2143 44.3086V23.9375H42.7857V44.3086C42.7857 44.5342 42.6049 44.7188 42.3839 44.7188Z" fill="black"/>
</svg>
