<svg width="101" height="101" viewBox="0 0 101 101" fill="none" xmlns="http://www.w3.org/2000/svg">
<g filter="url(#filter0_d)">
<path fill-rule="evenodd" clip-rule="evenodd" d="M10 46.5C10 24.1318 28.1325 6 50.5 6C72.8675 6 91 24.1318 91 46.5C91 68.8682 72.8675 87 50.5 87C28.1325 87 10 68.8682 10 46.5Z" fill="#3B5998"/>
<path fill-rule="evenodd" clip-rule="evenodd" d="M54.7214 70.3127V48.2793H60.8038L61.6099 40.6855H54.7214L54.7318 36.8853C54.7318 34.9049 54.9199 33.8438 57.7644 33.8438H61.5668V26.25H55.4836C48.1766 26.25 45.6047 29.9328 45.6047 36.128V40.6869H41.05V48.2793H45.6047V70.3127H54.7214Z" fill="white"/>
</g>
<defs>
<filter id="filter0_d" x="0" y="0" width="101" height="101" filterUnits="userSpaceOnUse" color-interpolation-filters="sRGB">
<feFlood flood-opacity="0" result="BackgroundImageFix"/>
<feColorMatrix in="SourceAlpha" type="matrix" values="0 0 0 0 0 0 0 0 0 0 0 0 0 0 0 0 0 0 127 0"/>
<feOffset dy="4"/>
<feGaussianBlur stdDeviation="5"/>
<feColorMatrix type="matrix" values="0 0 0 0 0 0 0 0 0 0 0 0 0 0 0 0 0 0 0.25 0"/>
<feBlend mode="normal" in2="BackgroundImageFix" result="effect1_dropShadow"/>
<feBlend mode="normal" in="SourceGraphic" in2="effect1_dropShadow" result="shape"/>
</filter>
</defs>
</svg>
