<svg width="293" height="87" viewBox="0 0 293 87" fill="none" xmlns="http://www.w3.org/2000/svg">
<path d="M268.979 0.00028057H23.2863C22.3907 0.00028057 21.5059 0.00028057 20.6126 0.00459703C19.8649 0.00891349 19.1232 0.0214528 18.3683 0.0320065C16.7284 0.0490605 15.0923 0.176557 13.4743 0.413387C11.8585 0.655374 10.2934 1.11159 8.83179 1.7666C7.37199 2.42715 6.03814 3.28547 4.87861 4.31042C3.71299 5.33248 2.74136 6.51385 2.00107 7.8091C1.25875 9.10177 0.744015 10.487 0.474655 11.9169C0.202735 13.345 0.0564125 14.7896 0.0370004 16.2377C0.0143361 16.8994 0.0119427 17.5633 0 18.2251V68.111C0.0119427 68.7811 0.0143361 69.4303 0.0370004 70.1007C0.0564185 71.5487 0.202741 72.9932 0.474655 74.4212C0.743271 75.852 1.25803 77.238 2.00107 78.5311C2.74102 79.8222 3.71279 80.9988 4.87861 82.0152C6.03374 83.0447 7.36846 83.9036 8.83179 84.5591C10.2934 85.2158 11.8583 85.6748 13.4743 85.9205C15.0925 86.1554 16.7285 86.283 18.3683 86.3021C19.1232 86.3167 19.8649 86.3252 20.6126 86.3252C21.5058 86.3295 22.3907 86.3295 23.2863 86.3295H268.979C269.857 86.3295 270.749 86.3295 271.626 86.3252C272.371 86.3252 273.134 86.3167 273.878 86.3021C275.515 86.284 277.147 86.1564 278.762 85.9205C280.384 85.673 281.954 85.2142 283.423 84.5591C284.885 83.9032 286.218 83.0443 287.372 82.0152C288.535 80.9948 289.509 79.8191 290.258 78.5311C290.996 77.237 291.506 75.8511 291.77 74.4212C292.043 72.993 292.194 71.5488 292.224 70.1007C292.233 69.4303 292.233 68.7811 292.233 68.111C292.252 67.3269 292.252 66.5471 292.252 65.7503V20.5814C292.252 19.7911 292.252 19.007 292.233 18.2251C292.233 17.5633 292.233 16.8994 292.224 16.2376C292.194 14.7894 292.043 13.3451 291.77 11.9168C291.505 10.4877 290.995 9.10262 290.258 7.80901C288.751 5.21283 286.36 3.09955 283.423 1.7664C281.954 1.11299 280.383 0.656901 278.762 0.413193C277.148 0.175319 275.515 0.0477784 273.878 0.0317044C273.134 0.0211722 272.371 0.00852501 271.626 0.00431646C270.749 0 269.857 0 268.979 0V0.00028057Z" fill="#A6A6A6"/>
<path d="M20.625 84.4405C19.8809 84.4405 19.1548 84.4321 18.4165 84.4174C16.8871 84.3998 15.3613 84.2821 13.8515 84.0654C12.4438 83.8511 11.0801 83.4526 9.80533 82.8829C8.54229 82.3179 7.39029 81.5771 6.39348 80.6888C5.38223 79.811 4.54032 78.7929 3.90111 77.6749C3.25486 76.5495 2.80762 75.3433 2.57496 74.0982C2.32371 72.7604 2.18777 71.4076 2.16832 70.0516C2.15284 69.5964 2.13257 68.0809 2.13257 68.0809V18.2246C2.13257 18.2246 2.15416 16.7323 2.16845 16.2939C2.18707 14.94 2.32222 13.5894 2.57271 12.2536C2.8058 11.0051 3.25339 9.7954 3.89999 8.66639C4.53685 7.5491 5.37408 6.53024 6.37924 5.64929C7.38326 4.75997 8.53894 4.01534 9.80413 3.44256C11.0759 2.8747 12.4371 2.47896 13.842 2.26861C15.3567 2.0497 16.8878 1.93134 18.4225 1.91454L20.6262 1.88818H271.615L273.845 1.91559C275.366 1.93156 276.883 2.04886 278.384 2.2665C279.803 2.47948 281.178 2.87798 282.464 3.44889C284.999 4.60321 287.061 6.42945 288.362 8.67165C288.999 9.79287 289.439 10.9927 289.67 12.2304C289.923 13.5771 290.065 14.9384 290.094 16.3034C290.101 16.9146 290.101 17.5712 290.101 18.2246C290.12 19.0339 290.12 19.8042 290.12 20.5809V65.7498C290.12 66.5339 290.12 67.299 290.101 68.0703C290.101 68.7722 290.101 69.4151 290.092 70.0768C290.063 71.4175 289.924 72.7545 289.674 74.0771C289.446 75.3312 289.001 76.5468 288.355 77.6813C287.712 78.7873 286.875 79.7965 285.875 80.672C284.877 81.565 283.723 82.3102 282.457 82.8788C281.175 83.4529 279.801 83.8529 278.384 84.0654C276.874 84.2833 275.348 84.4009 273.818 84.4174C273.103 84.4321 272.354 84.4405 271.627 84.4405L268.979 84.4448L20.625 84.4405Z" fill="black"/>
<path d="M149.549 46.5505C144.466 46.5505 140.313 50.3708 140.313 55.6416C140.313 60.8698 144.466 64.7301 149.549 64.7301C154.644 64.7301 158.797 60.8698 158.797 55.6416C158.797 50.3708 154.644 46.5505 149.549 46.5505ZM149.549 61.1503C146.76 61.1503 144.36 58.8768 144.36 55.6416C144.36 52.3637 146.76 50.1303 149.549 50.1303C152.339 50.1303 154.749 52.3637 154.749 55.6416C154.749 58.8768 152.339 61.1503 149.549 61.1503ZM129.396 46.5505C124.302 46.5505 120.159 50.3708 120.159 55.6416C120.159 60.8698 124.302 64.7301 129.396 64.7301C134.488 64.7301 138.633 60.8698 138.633 55.6416C138.633 50.3708 134.488 46.5505 129.396 46.5505ZM129.396 61.1503C126.604 61.1503 124.196 58.8768 124.196 55.6416C124.196 52.3637 126.604 50.1303 129.396 50.1303C132.185 50.1303 134.585 52.3637 134.585 55.6416C134.585 58.8768 132.185 61.1503 129.396 61.1503ZM105.414 49.3369V53.1999H114.756C114.483 55.3585 113.753 56.9453 112.633 58.0514C111.269 59.3871 109.145 60.8698 105.414 60.8698C99.6652 60.8698 95.1632 56.2882 95.1632 50.6112C95.1632 44.9342 99.6652 40.3526 105.414 40.3526C108.523 40.3526 110.785 41.5521 112.454 43.1069L115.211 40.3846C112.876 38.1833 109.77 36.4922 105.414 36.4922C97.5306 36.4922 90.9048 42.8264 90.9048 50.6112C90.9048 58.396 97.5306 64.7301 105.414 64.7301C109.676 64.7301 112.876 63.3516 115.392 60.7656C117.971 58.2197 118.774 54.6398 118.774 51.7492C118.774 50.8516 118.698 50.0261 118.563 49.3369H105.414ZM203.478 52.3316C202.718 50.2986 200.372 46.5505 195.594 46.5505C190.86 46.5505 186.918 50.2345 186.918 55.6416C186.918 60.7335 190.819 64.7301 196.049 64.7301C200.277 64.7301 202.718 62.1842 203.722 60.7015L200.583 58.6364C199.536 60.1485 198.11 61.1503 196.049 61.1503C194.001 61.1503 192.532 60.2233 191.59 58.396L203.903 53.3655L203.478 52.3316ZM190.925 55.3585C190.819 51.8534 193.681 50.0582 195.732 50.0582C197.339 50.0582 198.703 50.8516 199.157 51.987L190.925 55.3585ZM180.917 64.1771H184.964V37.462H180.917V64.1771ZM174.288 48.5755H174.153C173.244 47.5122 171.51 46.5505 169.313 46.5505C164.703 46.5505 160.488 50.5471 160.488 55.671C160.488 60.7656 164.703 64.7301 169.313 64.7301C171.51 64.7301 173.244 63.7604 174.153 62.6651H174.288V63.9688C174.288 67.4444 172.408 69.3118 169.375 69.3118C166.902 69.3118 165.368 67.5486 164.735 66.0659L161.215 67.5165C162.23 69.9262 164.917 72.8916 169.375 72.8916C174.121 72.8916 178.125 70.1346 178.125 63.4264V47.1035H174.288V48.5755ZM169.659 61.1503C166.87 61.1503 164.535 58.8448 164.535 55.671C164.535 52.4679 166.87 50.1303 169.659 50.1303C172.408 50.1303 174.575 52.4679 174.575 55.671C174.575 58.8448 172.408 61.1503 169.659 61.1503ZM222.427 37.462H212.747V64.1771H216.784V54.0548H222.427C226.91 54.0548 231.307 50.8516 231.307 45.757C231.307 40.6651 226.9 37.462 222.427 37.462ZM222.533 50.3387H216.784V41.1781H222.533C225.547 41.1781 227.268 43.6492 227.268 45.757C227.268 47.8248 225.547 50.3387 222.533 50.3387ZM247.486 46.4997C244.569 46.4997 241.536 47.7714 240.289 50.5898L243.871 52.0725C244.642 50.5898 246.06 50.1089 247.559 50.1089C249.653 50.1089 251.777 51.3512 251.809 53.5445V53.825C251.079 53.4083 249.515 52.7911 247.591 52.7911C243.733 52.7911 239.802 54.8883 239.802 58.802C239.802 62.3819 242.962 64.6874 246.515 64.6874C249.231 64.6874 250.73 63.4772 251.671 62.0693H251.809V64.1344H255.708V53.8865C255.708 49.1499 252.126 46.4997 247.486 46.4997ZM246.999 61.1396C245.679 61.1396 243.839 60.4931 243.839 58.8768C243.839 56.8091 246.133 56.0157 248.119 56.0157C249.896 56.0157 250.73 56.403 251.809 56.9133C251.493 59.3871 249.336 61.1396 246.999 61.1396ZM269.912 47.0848L265.272 58.6658H265.134L260.337 47.0848H255.984L263.191 63.2688L259.079 72.2745H263.297L274.403 47.0848H269.912ZM233.525 64.1771H237.573V37.462H233.525V64.1771Z" fill="white"/>
<path d="M22.2874 16.1732C21.6516 16.8304 21.2837 17.8536 21.2837 19.1787V66.4431C21.2837 67.7681 21.6516 68.7913 22.2874 69.4485L22.4444 69.5928L49.2667 43.1181V42.493L22.4444 16.0183L22.2874 16.1732Z" fill="url(#paint0_linear)"/>
<path d="M58.1965 51.9473L49.2656 43.1179V42.4928L58.2073 33.6634L58.4075 33.7783L68.9969 39.7278C72.0189 41.4162 72.0189 44.1945 68.9969 45.8936L58.4075 51.8324L58.1965 51.9473Z" fill="url(#paint1_linear)"/>
<path d="M58.4073 51.8324L49.2654 42.8054L22.2861 69.4484C23.2899 70.4903 24.9267 70.6158 26.7881 69.5739L58.4073 51.8324Z" fill="url(#paint2_linear)"/>
<path d="M58.4073 33.7786L26.7881 16.0371C24.9267 15.0059 23.2899 15.1315 22.2861 16.1733L49.2654 42.8057L58.4073 33.7786Z" fill="url(#paint3_linear)"/>
<defs>
<linearGradient id="paint0_linear" x1="46.8852" y1="66.9353" x2="11.0206" y2="30.6143" gradientUnits="userSpaceOnUse">
<stop stop-color="#00A0FF"/>
<stop offset="0.0066" stop-color="#00A1FF"/>
<stop offset="0.2601" stop-color="#00BEFF"/>
<stop offset="0.5122" stop-color="#00D2FF"/>
<stop offset="0.7604" stop-color="#00DFFF"/>
<stop offset="1" stop-color="#00E3FF"/>
</linearGradient>
<linearGradient id="paint1_linear" x1="72.9321" y1="42.8024" x2="20.5602" y2="42.8024" gradientUnits="userSpaceOnUse">
<stop stop-color="#FFE000"/>
<stop offset="0.4087" stop-color="#FFBD00"/>
<stop offset="0.7754" stop-color="#FFA500"/>
<stop offset="1" stop-color="#FF9C00"/>
</linearGradient>
<linearGradient id="paint2_linear" x1="53.4362" y1="37.8981" x2="4.80084" y2="-11.3561" gradientUnits="userSpaceOnUse">
<stop stop-color="#FF3A44"/>
<stop offset="1" stop-color="#C31162"/>
</linearGradient>
<linearGradient id="paint3_linear" x1="15.4949" y1="85.1733" x2="37.2128" y2="63.1793" gradientUnits="userSpaceOnUse">
<stop stop-color="#32A071"/>
<stop offset="0.0685" stop-color="#2DA771"/>
<stop offset="0.4762" stop-color="#15CF74"/>
<stop offset="0.8009" stop-color="#06E775"/>
<stop offset="1" stop-color="#00F076"/>
</linearGradient>
</defs>
</svg>
