<svg width="293" height="87" viewBox="0 0 293 87" fill="none" xmlns="http://www.w3.org/2000/svg">
<path d="M149.549 46.5507C144.466 46.5507 140.313 50.371 140.313 55.6419C140.313 60.87 144.466 64.7304 149.549 64.7304C154.644 64.7304 158.797 60.87 158.797 55.6419C158.797 50.371 154.644 46.5507 149.549 46.5507ZM149.549 61.1506C146.76 61.1506 144.36 58.8771 144.36 55.6419C144.36 52.3639 146.76 50.1306 149.549 50.1306C152.339 50.1306 154.749 52.3639 154.749 55.6419C154.749 58.8771 152.339 61.1506 149.549 61.1506ZM129.396 46.5507C124.302 46.5507 120.159 50.371 120.159 55.6419C120.159 60.87 124.302 64.7304 129.396 64.7304C134.488 64.7304 138.633 60.87 138.633 55.6419C138.633 50.371 134.488 46.5507 129.396 46.5507ZM129.396 61.1506C126.604 61.1506 124.196 58.8771 124.196 55.6419C124.196 52.3639 126.604 50.1306 129.396 50.1306C132.185 50.1306 134.585 52.3639 134.585 55.6419C134.585 58.8771 132.185 61.1506 129.396 61.1506ZM105.414 49.3371V53.2001H114.756C114.483 55.3587 113.753 56.9456 112.633 58.0516C111.269 59.3874 109.145 60.87 105.414 60.87C99.6652 60.87 95.1632 56.2884 95.1632 50.6114C95.1632 44.9345 99.6652 40.3528 105.414 40.3528C108.523 40.3528 110.785 41.5523 112.454 43.1072L115.211 40.3849C112.876 38.1836 109.77 36.4925 105.414 36.4925C97.5306 36.4925 90.9048 42.8266 90.9048 50.6114C90.9048 58.3962 97.5306 64.7304 105.414 64.7304C109.676 64.7304 112.876 63.3519 115.392 60.7658C117.971 58.2199 118.774 54.6401 118.774 51.7495C118.774 50.8519 118.698 50.0264 118.563 49.3371H105.414ZM203.478 52.3319C202.718 50.2989 200.372 46.5507 195.594 46.5507C190.86 46.5507 186.918 50.2347 186.918 55.6419C186.918 60.7338 190.819 64.7304 196.049 64.7304C200.277 64.7304 202.718 62.1844 203.722 60.7017L200.583 58.6367C199.536 60.1487 198.11 61.1506 196.049 61.1506C194.001 61.1506 192.532 60.2235 191.59 58.3962L203.903 53.3658L203.478 52.3319ZM190.925 55.3587C190.819 51.8537 193.681 50.0584 195.732 50.0584C197.339 50.0584 198.703 50.8519 199.157 51.9873L190.925 55.3587ZM180.917 64.1774H184.964V37.4622H180.917V64.1774ZM174.288 48.5757H174.153C173.244 47.5125 171.51 46.5507 169.313 46.5507C164.703 46.5507 160.488 50.5473 160.488 55.6713C160.488 60.7659 164.703 64.7304 169.313 64.7304C171.51 64.7304 173.244 63.7606 174.153 62.6653H174.288V63.969C174.288 67.4446 172.408 69.312 169.375 69.312C166.902 69.312 165.368 67.5488 164.735 66.0661L161.215 67.5168C162.23 69.9265 164.917 72.8918 169.375 72.8918C174.121 72.8918 178.125 70.1348 178.125 63.4267V47.1037H174.288V48.5757ZM169.659 61.1506C166.87 61.1506 164.535 58.845 164.535 55.6713C164.535 52.4681 166.87 50.1306 169.659 50.1306C172.408 50.1306 174.575 52.4681 174.575 55.6713C174.575 58.845 172.408 61.1506 169.659 61.1506ZM222.427 37.4622H212.747V64.1774H216.784V54.055H222.427C226.91 54.055 231.307 50.8519 231.307 45.7573C231.307 40.6654 226.9 37.4622 222.427 37.4622ZM222.533 50.3389H216.784V41.1783H222.533C225.547 41.1783 227.268 43.6495 227.268 45.7573C227.268 47.825 225.547 50.3389 222.533 50.3389ZM247.486 46.5C244.569 46.5 241.536 47.7716 240.289 50.5901L243.871 52.0727C244.642 50.5901 246.06 50.1092 247.559 50.1092C249.653 50.1092 251.777 51.3514 251.809 53.5448V53.8253C251.079 53.4085 249.515 52.7914 247.591 52.7914C243.733 52.7914 239.802 54.8885 239.802 58.8023C239.802 62.3821 242.962 64.6876 246.515 64.6876C249.231 64.6876 250.73 63.4774 251.671 62.0695H251.809V64.1346H255.708V53.8867C255.708 49.1501 252.126 46.5 247.486 46.5ZM246.999 61.1399C245.679 61.1399 243.839 60.4934 243.839 58.8771C243.839 56.8093 246.133 56.0159 248.119 56.0159C249.896 56.0159 250.73 56.4033 251.809 56.9135C251.493 59.3874 249.336 61.1399 246.999 61.1399ZM269.912 47.085L265.272 58.666H265.134L260.337 47.085H255.984L263.191 63.2691L259.079 72.2747H263.297L274.403 47.085H269.912ZM233.525 64.1774H237.573V37.4622H233.525V64.1774Z" fill="white"/>
<path d="M22.2874 16.173C21.6516 16.8302 21.2837 17.8533 21.2837 19.1784V66.4428C21.2837 67.7679 21.6516 68.7911 22.2874 69.4483L22.4444 69.5925L49.2667 43.1178V42.4927L22.4444 16.018L22.2874 16.173Z" fill="url(#paint0_linear)"/>
<path d="M58.1965 51.9473L49.2656 43.1179V42.4928L58.2073 33.6634L58.4075 33.7783L68.9969 39.7278C72.0189 41.4162 72.0189 44.1945 68.9969 45.8936L58.4075 51.8324L58.1965 51.9473Z" fill="url(#paint1_linear)"/>
<path d="M58.4073 51.8324L49.2654 42.8054L22.2861 69.4484C23.2899 70.4903 24.9267 70.6158 26.7881 69.5739L58.4073 51.8324Z" fill="url(#paint2_linear)"/>
<path d="M58.4073 33.7784L26.7881 16.0369C24.9267 15.0057 23.2899 15.1312 22.2861 16.1731L49.2654 42.8054L58.4073 33.7784Z" fill="url(#paint3_linear)"/>
<defs>
<linearGradient id="paint0_linear" x1="46.8852" y1="66.935" x2="11.0206" y2="30.6141" gradientUnits="userSpaceOnUse">
<stop stop-color="#00A0FF"/>
<stop offset="0.0066" stop-color="#00A1FF"/>
<stop offset="0.2601" stop-color="#00BEFF"/>
<stop offset="0.5122" stop-color="#00D2FF"/>
<stop offset="0.7604" stop-color="#00DFFF"/>
<stop offset="1" stop-color="#00E3FF"/>
</linearGradient>
<linearGradient id="paint1_linear" x1="72.9321" y1="42.8024" x2="20.5602" y2="42.8024" gradientUnits="userSpaceOnUse">
<stop stop-color="#FFE000"/>
<stop offset="0.4087" stop-color="#FFBD00"/>
<stop offset="0.7754" stop-color="#FFA500"/>
<stop offset="1" stop-color="#FF9C00"/>
</linearGradient>
<linearGradient id="paint2_linear" x1="53.4362" y1="37.8981" x2="4.80084" y2="-11.3561" gradientUnits="userSpaceOnUse">
<stop stop-color="#FF3A44"/>
<stop offset="1" stop-color="#C31162"/>
</linearGradient>
<linearGradient id="paint3_linear" x1="15.4949" y1="85.1731" x2="37.2128" y2="63.1791" gradientUnits="userSpaceOnUse">
<stop stop-color="#32A071"/>
<stop offset="0.0685" stop-color="#2DA771"/>
<stop offset="0.4762" stop-color="#15CF74"/>
<stop offset="0.8009" stop-color="#06E775"/>
<stop offset="1" stop-color="#00F076"/>
</linearGradient>
</defs>
</svg>
