<svg width="18" height="39" viewBox="0 0 18 39" fill="none" xmlns="http://www.w3.org/2000/svg">
<path d="M5.17745 8.86359H12.0825C12.5497 8.86359 12.9541 8.68829 13.2961 8.33738C13.6371 7.98677 13.8082 7.57116 13.8082 7.09103V1.77285C13.8082 1.29282 13.6371 0.877502 13.2955 0.52621C12.954 0.175791 12.549 0 12.0818 0H5.17736C4.71014 0 4.30555 0.175791 3.96379 0.52621C3.6223 0.877114 3.45142 1.29282 3.45142 1.77285V7.09103C3.45142 7.57116 3.6223 7.98677 3.96379 8.33738C4.30555 8.68829 4.71014 8.86359 5.17745 8.86359Z" fill="black"/>
<path d="M16.7479 32.435C16.4066 32.0841 16.0019 31.9085 15.5343 31.9085C14.581 31.9085 13.8081 31.1357 13.8081 30.1823V15.9542C13.8081 15.4743 13.6374 15.0589 13.296 14.708C12.9541 14.3571 12.5494 14.1816 12.0825 14.1816H1.72594C1.25844 14.1816 0.853951 14.3571 0.512371 14.708C0.170601 15.0589 0 15.4743 0 15.9542V19.4998C0 19.9797 0.170696 20.3954 0.512371 20.746C0.853856 21.0973 1.25844 21.2726 1.72594 21.2726C2.67931 21.2726 3.45217 22.0454 3.45217 22.9988V30.1824C3.45217 31.1358 2.67931 31.9086 1.72594 31.9086C1.25844 31.9086 0.853951 32.0842 0.512371 32.4351C0.170601 32.7857 0 33.2014 0 33.6815V37.227C0 37.707 0.170696 38.1226 0.512371 38.474C0.853856 38.8243 1.25844 39 1.72594 39H15.5343C16.0018 39 16.4065 38.8243 16.7479 38.474C17.0893 38.1227 17.26 37.7071 17.26 37.227V33.6815C17.26 33.2013 17.0903 32.7856 16.7479 32.435Z" fill="black"/>
</svg>
