<svg width="60" height="60" viewBox="0 0 60 60" fill="none" xmlns="http://www.w3.org/2000/svg">
<circle cx="30" cy="30" r="30" fill="white"/>
<path fill-rule="evenodd" clip-rule="evenodd" d="M30.3334 25C33.2788 25 35.6668 27.3877 35.6668 30.3334C35.6668 33.2788 33.2788 35.6668 30.3334 35.6668C27.3877 35.6668 25 33.2788 25 30.3334C25 27.3877 27.3877 25 30.3334 25V25Z" fill="black"/>
<path fill-rule="evenodd" clip-rule="evenodd" d="M30 0C13.4315 0 0 13.4315 0 30C0 46.5685 13.4315 60 30 60C46.5685 60 60 46.5685 60 30C60 13.4315 46.5685 0 30 0ZM23.4041 14.0967C25.1108 14.019 25.6561 14 30.0015 14H29.9965C34.3432 14 34.8866 14.019 36.5932 14.0967C38.2966 14.1747 39.4599 14.4443 40.4799 14.84C41.5333 15.2483 42.4233 15.795 43.3133 16.685C44.2033 17.5744 44.75 18.467 45.16 19.5194C45.5533 20.5367 45.8233 21.6994 45.9033 23.4028C45.98 25.1094 46 25.6548 46 30.0002C46 34.3455 45.98 34.8895 45.9033 36.5962C45.8233 38.2989 45.5533 39.4619 45.16 40.4796C44.75 41.5316 44.2033 42.4243 43.3133 43.3136C42.4243 44.2036 41.533 44.7517 40.4809 45.1603C39.4629 45.556 38.2989 45.8257 36.5956 45.9037C34.8889 45.9813 34.3452 46.0003 29.9995 46.0003C25.6545 46.0003 25.1094 45.9813 23.4028 45.9037C21.6997 45.8257 20.5367 45.556 19.5187 45.1603C18.467 44.7517 17.5744 44.2036 16.6854 43.3136C15.7957 42.4243 15.249 41.5316 14.84 40.4793C14.4447 39.4619 14.175 38.2993 14.0967 36.5959C14.0193 34.8892 14 34.3455 14 30.0002C14 25.6548 14.02 25.1091 14.0963 23.4024C14.173 21.6997 14.443 20.5367 14.8397 19.5191C15.2497 18.467 15.7964 17.5744 16.6864 16.685C17.5757 15.7954 18.4684 15.2487 19.5207 14.84C20.5381 14.4443 21.7007 14.1747 23.4041 14.0967Z" fill="black"/>
<path fill-rule="evenodd" clip-rule="evenodd" d="M28.6815 17.004C28.9602 17.0036 29.26 17.0037 29.5835 17.0038L30.1168 17.004C34.3888 17.004 34.8952 17.0193 36.5822 17.096C38.1422 17.1673 38.9889 17.428 39.5529 17.647C40.2996 17.937 40.8319 18.2837 41.3916 18.8437C41.9516 19.4037 42.2983 19.937 42.5889 20.6837C42.8079 21.247 43.0689 22.0937 43.1399 23.6537C43.2166 25.3404 43.2333 25.8471 43.2333 30.1171C43.2333 34.3872 43.2166 34.8939 43.1399 36.5805C43.0686 38.1406 42.8079 38.9872 42.5889 39.5506C42.2989 40.2972 41.9516 40.8289 41.3916 41.3886C40.8316 41.9486 40.2999 42.2953 39.5529 42.5853C38.9896 42.8053 38.1422 43.0653 36.5822 43.1366C34.8955 43.2133 34.3888 43.2299 30.1168 43.2299C25.8444 43.2299 25.3381 43.2133 23.6514 43.1366C22.0914 43.0646 21.2447 42.8039 20.6804 42.5849C19.9337 42.2949 19.4004 41.9483 18.8404 41.3883C18.2803 40.8282 17.9337 40.2962 17.643 39.5492C17.424 38.9859 17.163 38.1392 17.092 36.5792C17.0153 34.8925 17 34.3858 17 30.1131C17 25.8404 17.0153 25.3364 17.092 23.6497C17.1633 22.0897 17.424 21.243 17.643 20.679C17.933 19.9324 18.2803 19.399 18.8404 18.839C19.4004 18.279 19.9337 17.9323 20.6804 17.6417C21.2444 17.4217 22.0914 17.1617 23.6514 17.09C25.1274 17.0233 25.6994 17.0033 28.6815 17V17.004ZM38.6576 19.6607C37.5975 19.6607 36.7375 20.5197 36.7375 21.58C36.7375 22.6401 37.5975 23.5001 38.6576 23.5001C39.7176 23.5001 40.5776 22.6401 40.5776 21.58C40.5776 20.52 39.7176 19.66 38.6576 19.66V19.6607ZM21.9001 30.1208C21.9001 25.5831 25.5791 21.9041 30.1168 21.9041H30.1165C34.6542 21.9041 38.3322 25.5831 38.3322 30.1208C38.3322 34.6585 34.6545 38.3359 30.1168 38.3359C25.5791 38.3359 21.9001 34.6585 21.9001 30.1208Z" fill="black"/>
</svg>
