<svg width="160" height="38" viewBox="0 0 160 38" fill="none" xmlns="http://www.w3.org/2000/svg">
<path d="M12.7305 11.0742L10.9727 12.8906C9.51432 11.4714 8.08854 10.7617 6.69531 10.7617C5.8099 10.7617 5.04818 11.0547 4.41016 11.6406C3.78516 12.2266 3.47266 12.9102 3.47266 13.6914C3.47266 14.3815 3.73307 15.0391 4.25391 15.6641C4.77474 16.3021 5.86849 17.0508 7.53516 17.9102C9.56641 18.9648 10.9466 19.9805 11.6758 20.957C12.3919 21.9466 12.75 23.0599 12.75 24.2969C12.75 26.0417 12.138 27.5195 10.9141 28.7305C9.6901 29.9414 8.16016 30.5469 6.32422 30.5469C5.10026 30.5469 3.92839 30.2799 2.80859 29.7461C1.70182 29.2122 0.783854 28.4766 0.0546875 27.5391L1.77344 25.5859C3.16667 27.1615 4.64453 27.9492 6.20703 27.9492C7.30078 27.9492 8.23177 27.5977 9 26.8945C9.76823 26.1914 10.1523 25.3646 10.1523 24.4141C10.1523 23.6328 9.89844 22.9362 9.39062 22.3242C8.88281 21.7253 7.73698 20.9701 5.95312 20.0586C4.03906 19.069 2.73698 18.0924 2.04688 17.1289C1.35677 16.1654 1.01172 15.0651 1.01172 13.8281C1.01172 12.2135 1.55859 10.8724 2.65234 9.80469C3.75911 8.73698 5.15234 8.20312 6.83203 8.20312C8.78516 8.20312 10.7513 9.16016 12.7305 11.0742ZM17.6328 8.75H20.3477V12.6562C21.4284 11.1719 22.6719 10.0586 24.0781 9.31641C25.4844 8.57422 27.0534 8.20312 28.7852 8.20312C31.806 8.20312 34.3906 9.29036 36.5391 11.4648C38.6875 13.6393 39.7617 16.2565 39.7617 19.3164C39.7617 22.4414 38.694 25.0977 36.5586 27.2852C34.4362 29.4596 31.8711 30.5469 28.8633 30.5469C27.1706 30.5469 25.6146 30.1953 24.1953 29.4922C22.776 28.7891 21.4935 27.7409 20.3477 26.3477V37.7734H17.6328V8.75ZM28.5703 10.8398C26.2005 10.8398 24.2018 11.6667 22.5742 13.3203C20.9596 14.974 20.1523 17.0312 20.1523 19.4922C20.1523 21.1068 20.5104 22.5586 21.2266 23.8477C21.9557 25.1367 22.9909 26.1589 24.332 26.9141C25.6862 27.6693 27.112 28.0469 28.6094 28.0469C30.0807 28.0469 31.4609 27.6693 32.75 26.9141C34.0521 26.1458 35.0872 25.0781 35.8555 23.7109C36.6237 22.3438 37.0078 20.9115 37.0078 19.4141C37.0078 17.9036 36.6237 16.4714 35.8555 15.1172C35.1003 13.763 34.0781 12.7148 32.7891 11.9727C31.5 11.2174 30.0938 10.8398 28.5703 10.8398ZM62.7891 22.9492L65.0938 24.1602C64.3385 25.6445 63.4661 26.8424 62.4766 27.7539C61.487 28.6654 60.3737 29.362 59.1367 29.8438C57.8997 30.3125 56.5 30.5469 54.9375 30.5469C51.474 30.5469 48.7656 29.4141 46.8125 27.1484C44.8594 24.8698 43.8828 22.2982 43.8828 19.4336C43.8828 16.7383 44.7096 14.3359 46.3633 12.2266C48.4596 9.54427 51.2656 8.20312 54.7812 8.20312C58.401 8.20312 61.2917 9.57682 63.4531 12.3242C64.9896 14.2643 65.7708 16.6862 65.7969 19.5898H46.6953C46.7474 22.0638 47.5352 24.0951 49.0586 25.6836C50.582 27.2591 52.4635 28.0469 54.7031 28.0469C55.7839 28.0469 56.832 27.8581 57.8477 27.4805C58.8763 27.1029 59.7487 26.6016 60.4648 25.9766C61.181 25.3516 61.9557 24.3424 62.7891 22.9492ZM62.7891 17.2266C62.4245 15.7682 61.8906 14.6029 61.1875 13.7305C60.4974 12.8581 59.5794 12.1549 58.4336 11.6211C57.2878 11.0872 56.0833 10.8203 54.8203 10.8203C52.737 10.8203 50.9466 11.4909 49.4492 12.832C48.3555 13.8086 47.5286 15.2734 46.9688 17.2266H62.7891ZM91.5391 13.1641L89.3711 14.5117C87.4961 12.0247 84.9375 10.7812 81.6953 10.7812C79.1042 10.7812 76.9492 11.6146 75.2305 13.2812C73.5247 14.9479 72.6719 16.9727 72.6719 19.3555C72.6719 20.9049 73.0625 22.3633 73.8438 23.7305C74.638 25.0977 75.7188 26.1589 77.0859 26.9141C78.4661 27.6693 80.0091 28.0469 81.7148 28.0469C84.8398 28.0469 87.3919 26.8034 89.3711 24.3164L91.5391 25.7422C90.5234 27.2656 89.1562 28.4505 87.4375 29.2969C85.7318 30.1302 83.7852 30.5469 81.5977 30.5469C78.2383 30.5469 75.4518 29.4792 73.2383 27.3438C71.0247 25.2083 69.918 22.6107 69.918 19.5508C69.918 17.4935 70.4323 15.5859 71.4609 13.8281C72.5026 12.0573 73.9284 10.6771 75.7383 9.6875C77.5482 8.69792 79.5729 8.20312 81.8125 8.20312C83.2188 8.20312 84.5729 8.41797 85.875 8.84766C87.1901 9.27734 88.3034 9.83724 89.2148 10.5273C90.1263 11.2174 90.901 12.0964 91.5391 13.1641Z" fill="white"/>
<path d="M123.57 5.95703L119.723 9.76562C117.288 7.1875 114.449 5.89844 111.207 5.89844C108.382 5.89844 106.012 6.83594 104.098 8.71094C102.197 10.5859 101.246 12.8646 101.246 15.5469C101.246 18.3203 102.236 20.6706 104.215 22.5977C106.194 24.5247 108.635 25.4883 111.539 25.4883C113.427 25.4883 115.016 25.0911 116.305 24.2969C117.607 23.5026 118.655 22.2591 119.449 20.5664H111.129V15.4297H125.582L125.621 16.6406C125.621 19.1536 124.97 21.5365 123.668 23.7891C122.366 26.0417 120.68 27.7604 118.609 28.9453C116.539 30.1302 114.111 30.7227 111.324 30.7227C108.342 30.7227 105.68 30.0781 103.336 28.7891C101.005 27.487 99.1562 25.638 97.7891 23.2422C96.4349 20.8464 95.7578 18.2617 95.7578 15.4883C95.7578 11.6862 97.0143 8.37891 99.5273 5.56641C102.509 2.22005 106.389 0.546875 111.168 0.546875C113.668 0.546875 116.005 1.00911 118.18 1.93359C120.016 2.71484 121.812 4.05599 123.57 5.95703ZM144.215 0.546875C148.277 0.546875 151.767 2.01823 154.684 4.96094C157.613 7.90365 159.078 11.4909 159.078 15.7227C159.078 19.9154 157.633 23.4635 154.742 26.3672C151.865 29.2708 148.368 30.7227 144.254 30.7227C139.944 30.7227 136.363 29.2318 133.512 26.25C130.66 23.2682 129.234 19.7266 129.234 15.625C129.234 12.8776 129.898 10.3516 131.227 8.04688C132.555 5.74219 134.378 3.91927 136.695 2.57812C139.026 1.22396 141.533 0.546875 144.215 0.546875ZM144.156 5.89844C141.5 5.89844 139.267 6.82292 137.457 8.67188C135.647 10.5208 134.742 12.8711 134.742 15.7227C134.742 18.8997 135.882 21.4128 138.16 23.2617C139.931 24.707 141.962 25.4297 144.254 25.4297C146.845 25.4297 149.052 24.4922 150.875 22.6172C152.698 20.7422 153.609 18.431 153.609 15.6836C153.609 12.9492 152.691 10.638 150.855 8.75C149.02 6.84896 146.786 5.89844 144.156 5.89844Z" fill="#FED82C"/>
</svg>
