<svg width="320" height="75" viewBox="0 0 320 75" fill="none" xmlns="http://www.w3.org/2000/svg">
<path d="M29.4062 22.4375L22.8047 29.0391C20.1224 26.3828 17.6875 25.0547 15.5 25.0547C14.3021 25.0547 13.3646 25.3151 12.6875 25.8359C12.0104 26.3307 11.6719 26.9557 11.6719 27.7109C11.6719 28.2839 11.8802 28.8177 12.2969 29.3125C12.7396 29.7812 13.8073 30.4323 15.5 31.2656L19.4062 33.2188C23.5208 35.25 26.3464 37.3203 27.8828 39.4297C29.4193 41.5391 30.1875 44.013 30.1875 46.8516C30.1875 50.6276 28.7943 53.7786 26.0078 56.3047C23.2474 58.8307 19.5365 60.0938 14.875 60.0938C8.67708 60.0938 3.72917 57.6719 0.03125 52.8281L6.59375 45.6797C7.84375 47.138 9.30208 48.3229 10.9688 49.2344C12.6615 50.1198 14.1589 50.5625 15.4609 50.5625C16.8672 50.5625 18 50.224 18.8594 49.5469C19.7188 48.8698 20.1484 48.0885 20.1484 47.2031C20.1484 45.5625 18.599 43.9609 15.5 42.3984L11.9062 40.6016C5.03125 37.138 1.59375 32.8021 1.59375 27.5938C1.59375 24.2344 2.88281 21.3698 5.46094 19C8.0651 16.6042 11.3854 15.4062 15.4219 15.4062C18.1823 15.4062 20.7734 16.0182 23.1953 17.2422C25.6432 18.4401 27.7135 20.1719 29.4062 22.4375ZM49.2109 16.5V21.1875C51.138 19.2604 53.2214 17.8151 55.4609 16.8516C57.7005 15.888 60.0964 15.4062 62.6484 15.4062C68.1953 15.4062 72.9089 17.5026 76.7891 21.6953C80.6693 25.888 82.6094 31.2656 82.6094 37.8281C82.6094 44.1562 80.6042 49.4557 76.5938 53.7266C72.5833 57.9714 67.8307 60.0938 62.3359 60.0938C59.888 60.0938 57.6094 59.6641 55.5 58.8047C53.3906 57.9193 51.2943 56.487 49.2109 54.5078V74.5469H38.625V16.5H49.2109ZM60.4219 25.25C57.0625 25.25 54.276 26.3958 52.0625 28.6875C49.849 30.9792 48.7422 33.974 48.7422 37.6719C48.7422 41.4479 49.849 44.5078 52.0625 46.8516C54.276 49.1693 57.0625 50.3281 60.4219 50.3281C63.6771 50.3281 66.4115 49.1432 68.625 46.7734C70.8646 44.4036 71.9844 41.3828 71.9844 37.7109C71.9844 34.0651 70.8906 31.0833 68.7031 28.7656C66.5156 26.4219 63.7552 25.25 60.4219 25.25ZM134.016 40.8359H99.7578C100.253 43.8568 101.568 46.2656 103.703 48.0625C105.865 49.8333 108.612 50.7188 111.945 50.7188C115.93 50.7188 119.354 49.3255 122.219 46.5391L131.203 50.7578C128.964 53.9349 126.281 56.2917 123.156 57.8281C120.031 59.3385 116.32 60.0938 112.023 60.0938C105.357 60.0938 99.9271 57.9974 95.7344 53.8047C91.5417 49.5859 89.4453 44.3125 89.4453 37.9844C89.4453 31.5 91.5286 26.1224 95.6953 21.8516C99.888 17.5547 105.135 15.4062 111.438 15.4062C118.13 15.4062 123.573 17.5547 127.766 21.8516C131.958 26.1224 134.055 31.7734 134.055 38.8047L134.016 40.8359ZM123.312 32.4375C122.609 30.0677 121.216 28.1406 119.133 26.6562C117.076 25.1719 114.68 24.4297 111.945 24.4297C108.977 24.4297 106.372 25.263 104.133 26.9297C102.727 27.9714 101.424 29.8073 100.227 32.4375H123.312ZM184.289 25.0938L175.422 29.9766C173.755 28.2318 172.102 27.0208 170.461 26.3438C168.846 25.6667 166.945 25.3281 164.758 25.3281C160.773 25.3281 157.544 26.526 155.07 28.9219C152.622 31.2917 151.398 34.3385 151.398 38.0625C151.398 41.6823 152.583 44.638 154.953 46.9297C157.323 49.2214 160.435 50.3672 164.289 50.3672C169.055 50.3672 172.766 48.7396 175.422 45.4844L183.82 51.2266C179.263 57.138 172.831 60.0938 164.523 60.0938C157.049 60.0938 151.19 57.8802 146.945 53.4531C142.727 49.026 140.617 43.8438 140.617 37.9062C140.617 33.7917 141.646 30.0026 143.703 26.5391C145.76 23.0755 148.625 20.3542 152.297 18.375C155.995 16.3958 160.122 15.4062 164.68 15.4062C168.898 15.4062 172.688 16.2526 176.047 17.9453C179.406 19.612 182.154 21.9948 184.289 25.0938Z" fill="white"/>
<path d="M248.156 10.9141L240.461 18.5312C235.591 13.375 229.914 10.7969 223.43 10.7969C217.779 10.7969 213.039 12.6719 209.211 16.4219C205.409 20.1719 203.508 24.7292 203.508 30.0938C203.508 35.6406 205.487 40.3411 209.445 44.1953C213.404 48.0495 218.286 49.9766 224.094 49.9766C227.87 49.9766 231.047 49.1823 233.625 47.5938C236.229 46.0052 238.326 43.5182 239.914 40.1328H223.273V29.8594H252.18L252.258 32.2812C252.258 37.3073 250.956 42.0729 248.352 46.5781C245.747 51.0833 242.375 54.5208 238.234 56.8906C234.094 59.2604 229.237 60.4453 223.664 60.4453C217.701 60.4453 212.375 59.1562 207.688 56.5781C203.026 53.974 199.328 50.276 196.594 45.4844C193.885 40.6927 192.531 35.5234 192.531 29.9766C192.531 22.3724 195.044 15.7578 200.07 10.1328C206.034 3.4401 213.794 0.09375 223.352 0.09375C228.352 0.09375 233.026 1.01823 237.375 2.86719C241.047 4.42969 244.641 7.11198 248.156 10.9141ZM289.445 0.09375C297.57 0.09375 304.549 3.03646 310.383 8.92188C316.242 14.8073 319.172 21.9818 319.172 30.4453C319.172 38.8307 316.281 45.9271 310.5 51.7344C304.745 57.5417 297.753 60.4453 289.523 60.4453C280.904 60.4453 273.742 57.4635 268.039 51.5C262.336 45.5365 259.484 38.4531 259.484 30.25C259.484 24.7552 260.812 19.7031 263.469 15.0938C266.125 10.4844 269.771 6.83854 274.406 4.15625C279.068 1.44792 284.081 0.09375 289.445 0.09375ZM289.328 10.7969C284.016 10.7969 279.549 12.6458 275.93 16.3438C272.31 20.0417 270.5 24.7422 270.5 30.4453C270.5 36.7995 272.779 41.8255 277.336 45.5234C280.878 48.4141 284.94 49.8594 289.523 49.8594C294.706 49.8594 299.12 47.9844 302.766 44.2344C306.411 40.4844 308.234 35.862 308.234 30.3672C308.234 24.8984 306.398 20.276 302.727 16.5C299.055 12.6979 294.589 10.7969 289.328 10.7969Z" fill="black"/>
</svg>
