<svg width="62" height="62" viewBox="0 0 62 62" fill="none" xmlns="http://www.w3.org/2000/svg">
<circle cx="31" cy="31" r="31" fill="white"/>
<path d="M44.7188 17H16.2812C14.469 17 13 18.567 13 20.5V41.5C13 43.433 14.469 45 16.2812 45H44.7188C46.531 45 48 43.433 48 41.5V20.5C48 18.567 46.531 17 44.7188 17ZM44.7188 20.5V23.4754C43.186 24.8067 40.7424 26.877 35.5185 31.2403C34.3672 32.2062 32.0868 34.5268 30.5 34.4997C28.9135 34.5271 26.6323 32.2058 25.4815 31.2403C20.2584 26.8777 17.8142 24.807 16.2812 23.4754V20.5H44.7188ZM16.2812 41.5V27.9665C17.8476 29.2973 20.069 31.1648 23.4547 33.9928C24.9489 35.2473 27.5655 38.0168 30.5 37.9999C33.4201 38.0168 36.0035 35.2875 37.5446 33.9934C40.9303 31.1654 43.1523 29.2975 44.7188 27.9666V41.5H16.2812Z" fill="black"/>
</svg>
