<svg width="62" height="62" viewBox="0 0 62 62" fill="none" xmlns="http://www.w3.org/2000/svg">
<circle cx="31" cy="31" r="31" fill="white"/>
<path d="M15.199 13.7788L21.9021 12.0446C22.6314 11.8559 23.3768 12.2796 23.6718 13.0514L26.7655 21.1449C26.8977 21.4907 26.926 21.8752 26.8462 22.2405C26.7665 22.6059 26.5829 22.9322 26.3232 23.1704L22.4163 26.7545C24.7349 32.2955 28.7932 36.9084 33.8405 39.5635L37.0372 35.183C37.2496 34.8919 37.5407 34.6861 37.8665 34.5966C38.1924 34.5072 38.5354 34.539 38.8437 34.6871L46.0623 38.1559C46.7504 38.4865 47.1285 39.3222 46.9602 40.14L45.4135 47.6556C45.2528 48.4366 44.6315 49 43.9063 49C27.4006 49 14 34.0025 14 15.4687C14 14.6611 14.4972 13.9603 15.199 13.7788Z" fill="black"/>
</svg>
