<svg width="36" height="35" viewBox="0 0 36 35" fill="none" xmlns="http://www.w3.org/2000/svg">
<path d="M18 0C24.2132 0 29.25 4.89686 29.25 10.9375C29.25 16.9781 24.2132 21.875 18 21.875C11.7868 21.875 6.75 16.9781 6.75 10.9375C6.75 4.89686 11.7868 0 18 0ZM30.8871 22.8198L25.8729 21.6011C20.6049 25.285 14.2194 24.4629 10.1271 21.6011L5.11291 22.8198C2.10804 23.5501 0 26.175 0 29.1864V31.7188C0 33.531 1.51102 35 3.375 35H32.625C34.489 35 36 33.531 36 31.7188V29.1864C36 26.175 33.892 23.5501 30.8871 22.8198Z" fill="black"/>
</svg>
