<svg width="62" height="62" viewBox="0 0 62 62" fill="none" xmlns="http://www.w3.org/2000/svg">
<circle cx="31" cy="31" r="31" fill="white"/>
<g clip-path="url(#clip0)">
<path d="M32.0896 47.9803C34.6131 47.6218 36.8253 44.988 38.2174 41.0983C36.205 40.6476 34.1515 40.4058 32.0896 40.377V47.9803Z" fill="black"/>
<path d="M36.1213 47.3621C36.2705 47.3189 36.4191 47.2754 36.5665 47.2276C36.6909 47.1876 36.8136 47.1444 36.9363 47.1015C37.0814 47.0514 37.226 46.9998 37.37 46.9451C37.4926 46.8984 37.6142 46.8489 37.736 46.7994C37.8765 46.7404 38.0167 46.6816 38.1555 46.6226C38.2768 46.5693 38.3972 46.5134 38.5175 46.4573C38.6537 46.3931 38.7894 46.3277 38.9239 46.2597C39.0419 46.1995 39.1597 46.1382 39.2778 46.0751C39.41 46.0043 39.5413 45.932 39.6717 45.8577C39.7898 45.7909 39.9035 45.7238 40.0184 45.6547C40.1463 45.5761 40.2736 45.4975 40.4 45.4188C40.5132 45.3468 40.6261 45.2737 40.7375 45.1983C40.8619 45.1145 40.9846 45.0272 41.1067 44.9399C41.2164 44.8613 41.3255 44.783 41.4327 44.7041C41.5507 44.6131 41.6717 44.5189 41.7901 44.4245C41.8952 44.3407 42 44.2574 42.1034 44.1713C42.2211 44.0734 42.334 43.9721 42.4484 43.8707C42.5486 43.7817 42.6494 43.6936 42.7473 43.6023C42.8599 43.4972 42.9696 43.3883 43.0793 43.2803C43.1743 43.1865 43.2705 43.094 43.3635 42.9978C43.3808 42.98 43.3972 42.9607 43.4151 42.9423C42.1287 42.2779 40.7738 41.7564 39.374 41.3872C38.646 43.7089 37.3504 45.8128 35.6047 47.5078C35.6525 47.4954 35.7003 47.4853 35.7481 47.473C35.8742 47.4375 35.998 47.3987 36.1213 47.3621Z" fill="black"/>
<path d="M47.9999 32.1035H40.9284C40.9017 34.8646 40.5011 37.6093 39.7377 40.263C41.2945 40.6788 42.7968 41.2766 44.2136 42.0441C46.5399 39.2404 47.8715 35.7447 47.9999 32.1035Z" fill="black"/>
<path d="M32.0896 30.9238H39.7489C39.7189 28.2604 39.3281 25.6133 38.5877 23.0547C36.455 23.5411 34.2768 23.8008 32.0896 23.8296V30.9238Z" fill="black"/>
<path d="M32.0896 15.0464V22.6498C34.1515 22.6207 36.205 22.3791 38.2174 21.9284C36.8253 18.0387 34.6131 15.4049 32.0896 15.0464Z" fill="black"/>
<path d="M32.0896 39.1978C34.2768 39.2269 36.455 39.4866 38.5877 39.973C39.3281 37.4143 39.7189 34.767 39.7489 32.1035H32.0896V39.1978Z" fill="black"/>
<path d="M44.2136 20.9834C42.7968 21.7508 41.2945 22.3487 39.7377 22.7645C40.5011 25.4182 40.9017 28.1629 40.9284 30.924H47.9999C47.8712 27.2831 46.5396 23.7874 44.2136 20.9834Z" fill="black"/>
<path d="M43.4169 20.0885C43.3996 20.0709 43.3832 20.0519 43.3662 20.0338C43.2729 19.9376 43.1762 19.8449 43.0811 19.7513C42.9717 19.6433 42.8626 19.5342 42.7497 19.4293C42.6521 19.3383 42.551 19.2522 42.4508 19.1615C42.3364 19.0602 42.2221 18.9579 42.1046 18.86C42.0027 18.7739 41.8981 18.6915 41.7945 18.6089C41.6764 18.5133 41.5555 18.4183 41.4339 18.327C41.3274 18.2466 41.2194 18.1689 41.1108 18.0911C40.9876 18.0024 40.8637 17.914 40.7382 17.8296C40.6279 17.7553 40.5159 17.6828 40.4038 17.6116C40.2763 17.5296 40.149 17.4492 40.0191 17.3715C39.9054 17.3032 39.7905 17.2358 39.6753 17.1705C39.5434 17.095 39.4112 17.0219 39.2779 16.9505C39.1598 16.8914 39.042 16.8272 38.9239 16.7682C38.7883 16.6996 38.6515 16.6337 38.5113 16.5689C38.3932 16.5127 38.2734 16.458 38.1519 16.4047C38.0122 16.3428 37.8711 16.287 37.7303 16.2279C37.6088 16.1784 37.4878 16.1294 37.3651 16.0828C37.222 16.0281 37.0769 15.9768 36.9317 15.9267C36.8091 15.8835 36.6864 15.8406 36.562 15.8003C36.4145 15.7525 36.2671 15.709 36.1156 15.6652C35.9929 15.6292 35.8697 15.5927 35.7456 15.5598C35.6981 15.5469 35.6497 15.5368 35.6019 15.5244C37.3476 17.2194 38.6429 19.3231 39.3712 21.645C40.7725 21.2758 42.1294 20.754 43.4169 20.0885Z" fill="black"/>
<path d="M15 30.924H22.0715C22.0983 28.1629 22.4988 25.4182 23.262 22.7645C21.7055 22.349 20.2031 21.7511 18.7863 20.9834C16.46 23.7871 15.1284 27.2831 15 30.924Z" fill="black"/>
<path d="M30.9104 47.9803V40.377C28.8485 40.406 26.795 40.6476 24.7826 41.0983C26.1744 44.988 28.3869 47.6218 30.9104 47.9803Z" fill="black"/>
<path d="M30.9105 32.1035H23.2512C23.2812 34.767 23.6717 37.4143 24.4123 39.973C26.5451 39.4863 28.723 39.2266 30.9105 39.1978V32.1035Z" fill="black"/>
<path d="M30.9104 15.0464C28.3869 15.4049 26.1744 18.0387 24.7826 21.9284C26.795 22.3793 28.8485 22.621 30.9104 22.6498V15.0464Z" fill="black"/>
<path d="M30.9105 23.8296C28.7233 23.8008 26.5451 23.5411 24.4123 23.0547C23.6717 25.6133 23.2812 28.2604 23.2512 30.9238H30.9105V23.8296Z" fill="black"/>
<path d="M27.3936 15.5239C27.3458 15.5363 27.298 15.5464 27.2502 15.5588C27.1252 15.5922 27.002 15.6293 26.8776 15.6653C26.7295 15.7085 26.5827 15.752 26.4341 15.7992C26.3088 15.8398 26.1856 15.883 26.0623 15.9259C25.918 15.9769 25.7735 16.0276 25.6306 16.0817C25.5074 16.129 25.3859 16.1779 25.2638 16.228C25.1235 16.2871 24.983 16.3461 24.8445 16.4048C24.7229 16.4581 24.6028 16.514 24.4825 16.5701C24.3463 16.6344 24.2106 16.6997 24.0761 16.7677C23.9581 16.8279 23.84 16.8895 23.7222 16.9523C23.59 17.0231 23.459 17.0957 23.3289 17.17C23.2108 17.2359 23.0947 17.3036 22.981 17.3727C22.8528 17.4499 22.7261 17.5297 22.6 17.6086C22.4865 17.6811 22.3739 17.7543 22.2625 17.8297C22.1381 17.9135 22.0154 18.0008 21.8933 18.088C21.7836 18.1667 21.6744 18.245 21.567 18.3242C21.4464 18.4149 21.3312 18.5093 21.2097 18.6035C21.1048 18.6873 20.9991 18.7705 20.8966 18.8572C20.7786 18.9546 20.6665 19.0553 20.5528 19.1561C20.452 19.246 20.3503 19.3332 20.2518 19.4263C20.1398 19.5308 20.0307 19.6394 19.9213 19.7471C19.8262 19.8409 19.7295 19.9337 19.6362 20.0301C19.6192 20.048 19.6028 20.0676 19.5849 20.0857C20.871 20.7504 22.2262 21.2719 23.626 21.6411C24.354 19.3206 25.6488 17.2181 27.3936 15.5239Z" fill="black"/>
<path d="M19.9187 43.2759C20.0284 43.3839 20.1375 43.493 20.2501 43.5981C20.348 43.6888 20.4488 43.7749 20.5493 43.8656C20.6636 43.9673 20.778 44.0692 20.8955 44.1671C20.9974 44.2527 21.1014 44.3353 21.2056 44.4183C21.3237 44.5139 21.4415 44.6089 21.5664 44.7008C21.6727 44.7805 21.7807 44.8577 21.8887 44.9369C22.0119 45.0253 22.1363 45.1137 22.2619 45.1987C22.3722 45.273 22.4842 45.3455 22.5962 45.4169C22.7238 45.4987 22.8511 45.5791 22.981 45.6568C23.0947 45.7254 23.2096 45.7925 23.3248 45.8581C23.4567 45.9336 23.5889 46.0067 23.7222 46.0778C23.84 46.1369 23.9581 46.2011 24.0761 46.2601C24.2118 46.3287 24.3485 46.3946 24.4888 46.4597C24.6069 46.5153 24.7267 46.57 24.8482 46.6236C24.9879 46.6855 25.1287 46.7413 25.2698 46.8004C25.3913 46.8499 25.5123 46.8989 25.6349 46.9455C25.7781 47.0005 25.9232 47.0518 26.0683 47.1019C26.191 47.1448 26.3137 47.188 26.4381 47.228C26.5855 47.2758 26.733 47.3196 26.8844 47.3631C27.0071 47.3991 27.1304 47.4356 27.2542 47.4688C27.302 47.4817 27.3504 47.4918 27.3982 47.5042C25.6525 45.8089 24.3572 43.7052 23.6289 41.3833C22.2291 41.7528 20.8739 42.2743 19.5878 42.9392C19.605 42.9568 19.6215 42.9758 19.6387 42.9939C19.7271 43.0895 19.8225 43.1823 19.9187 43.2759Z" fill="black"/>
<path d="M18.7863 42.0441C20.2031 41.2766 21.7055 40.6788 23.262 40.263C22.4988 37.6093 22.0983 34.8646 22.0715 32.1035H15C15.1287 35.7444 16.46 39.2401 18.7863 42.0441Z" fill="black"/>
</g>
<defs>
<clipPath id="clip0">
<rect width="33" height="33" fill="white" transform="translate(15 15)"/>
</clipPath>
</defs>
</svg>
