<svg width="60" height="60" viewBox="0 0 60 60" fill="none" xmlns="http://www.w3.org/2000/svg">
<circle cx="30" cy="30" r="30" fill="white"/>
<path fill-rule="evenodd" clip-rule="evenodd" d="M60 30C60 46.5685 46.5685 60 30 60C13.4315 60 0 46.5685 0 30C0 13.4315 13.4315 0 30 0C46.5685 0 60 13.4315 60 30ZM45.4318 30.166C45.4318 31.2751 45.3114 32.3546 45.08 33.397C45.6689 34.5655 46 35.8805 46 37.2734C46 42.092 42.0376 46 37.1496 46C35.635 46 34.2126 45.6235 32.9652 44.9632C32.0583 45.1283 31.1251 45.2154 30.1693 45.2154C21.7404 45.2154 14.9069 38.479 14.9069 30.166C14.9069 29.1311 15.0141 28.1184 15.2154 27.1428C14.444 25.8444 14 24.3384 14 22.7285C14 17.9061 17.9624 14 22.8523 14C24.5814 14 26.1957 14.4915 27.5597 15.3391C28.4102 15.1945 29.2813 15.1184 30.1693 15.1184C38.6002 15.1184 45.4318 21.8567 45.4318 30.166Z" fill="#080808"/>
<path fill-rule="evenodd" clip-rule="evenodd" d="M37.8241 37.7796C37.1185 38.7664 36.0762 39.5454 34.7215 40.0981C33.3838 40.6471 31.7808 40.9271 29.9539 40.9271C27.762 40.9271 25.9238 40.5469 24.4882 39.7957C23.4628 39.2505 22.6181 38.5123 21.9765 37.596C21.3274 36.6761 21 35.7617 21 34.8769C21 34.3279 21.2145 33.8494 21.6359 33.4581C22.0536 33.0686 22.5898 32.8738 23.2295 32.8738C23.7526 32.8738 24.206 33.0278 24.5729 33.3338C24.9247 33.6287 25.2258 34.0646 25.4685 34.6228C25.7394 35.2349 26.0329 35.7505 26.3434 36.153C26.6444 36.5462 27.0753 36.8745 27.6246 37.1323C28.1778 37.3883 28.9247 37.5218 29.841 37.5218C31.1035 37.5218 32.1383 37.2547 32.9153 36.7317C33.6773 36.2216 34.0461 35.6059 34.0461 34.8528C34.0461 34.2612 33.8523 33.7938 33.4572 33.4265C33.0395 33.0445 32.492 32.7477 31.8278 32.54C31.1336 32.3285 30.1929 32.0967 29.0282 31.8556C27.4421 31.5217 26.0969 31.1266 25.0282 30.6759C23.9332 30.2178 23.0508 29.5816 22.4055 28.786C21.7507 27.9754 21.4177 26.9609 21.4177 25.7683C21.4177 24.6332 21.7658 23.6075 22.4544 22.7246C23.1355 21.8473 24.1326 21.1611 25.4177 20.6955C26.6839 20.2337 28.1891 20 29.8956 20C31.2578 20 32.4563 20.1558 33.4572 20.4637C34.4638 20.7716 35.3104 21.187 35.9765 21.7008C36.6482 22.2201 37.1486 22.771 37.461 23.346C37.777 23.9265 37.9389 24.5033 37.9389 25.0616C37.9389 25.5995 37.7281 26.0891 37.3123 26.5139C36.8946 26.9442 36.3659 27.1612 35.7451 27.1612C35.1806 27.1612 34.7366 27.0239 34.4318 26.7569C34.1458 26.5065 33.8485 26.117 33.5193 25.5605C33.1392 24.8483 32.6783 24.2863 32.1496 23.8894C31.6359 23.5036 30.7799 23.3107 29.6002 23.3107C28.5089 23.3107 27.6171 23.5259 26.9567 23.9543C26.3208 24.3642 26.0103 24.8372 26.0103 25.3973C26.0103 25.7386 26.1101 26.0261 26.317 26.2709C26.5315 26.5343 26.8382 26.7606 27.2258 26.9535C27.6265 27.1519 28.0405 27.3114 28.4544 27.4227C28.8777 27.5396 29.5889 27.712 30.5654 27.9346C31.8015 28.1943 32.936 28.4892 33.9389 28.8064C34.9567 29.1254 35.8335 29.5186 36.5522 29.9804C37.2822 30.4497 37.8598 31.0506 38.2719 31.7702C38.6839 32.4955 38.8928 33.3857 38.8928 34.4225C38.8928 35.6615 38.5315 36.791 37.8241 37.7796Z" fill="#080808"/>
</svg>
