<svg width="60" height="60" viewBox="0 0 60 60" fill="none" xmlns="http://www.w3.org/2000/svg">
<path fill-rule="evenodd" clip-rule="evenodd" d="M60 30C60 46.5685 46.5685 60 30 60C13.4315 60 0 46.5685 0 30C0 13.4315 13.4315 0 30 0C46.5685 0 60 13.4315 60 30ZM30.9815 46.6906H30.9888C40.8244 46.6866 48.8237 38.6853 48.8277 28.8519C48.8296 24.0854 46.9757 19.6035 43.6078 16.2318C40.2398 12.8598 35.7608 11.0021 30.9887 11C21.156 11 13.1535 19.0021 13.1496 28.8378C13.1482 31.9819 13.9697 35.0506 15.5308 37.7561L13 47L22.4567 44.5193C25.0623 45.9405 27.9959 46.6896 30.9815 46.6906Z" fill="black"/>
<path fill-rule="evenodd" clip-rule="evenodd" d="M23.4364 41.6112L22.895 41.2899L17.2833 42.7619L18.7811 37.2905L18.4286 36.7296C16.9444 34.3689 16.1605 31.6405 16.1616 28.8389C16.1649 20.6639 22.8163 14.0131 30.9948 14.0131C34.9551 14.0144 38.6779 15.5586 41.4772 18.3613C44.2766 21.1639 45.8174 24.889 45.8158 28.8509C45.8126 37.0264 39.1612 43.6779 30.989 43.6779H30.983C28.3224 43.6769 25.7129 42.9621 23.4364 41.6112ZM39.3657 32.6926C39.6765 32.8428 39.8865 32.9443 39.9761 33.0939C40.0875 33.2798 40.0875 34.1722 39.7163 35.2136C39.3447 36.2547 37.564 37.205 36.7075 37.3329C35.9396 37.4478 34.9678 37.4956 33.9001 37.1563C33.2527 36.9509 32.4225 36.6766 31.359 36.2174C27.1804 34.413 24.3564 30.363 23.8227 29.5976C23.7853 29.5439 23.7592 29.5064 23.7446 29.4869L23.741 29.4821C23.5051 29.1674 21.9245 27.0586 21.9245 24.876C21.9245 22.8228 22.9331 21.7466 23.3973 21.2513C23.4291 21.2173 23.4584 21.1861 23.4846 21.1575C23.8931 20.7113 24.3761 20.5997 24.6732 20.5997C24.9703 20.5997 25.2678 20.6025 25.5275 20.6155C25.5595 20.6171 25.5929 20.6169 25.6273 20.6167C25.8871 20.6152 26.2109 20.6133 26.5304 21.3806C26.6533 21.676 26.8331 22.1138 27.0228 22.5756C27.4063 23.5093 27.8301 24.541 27.9047 24.6903C28.0161 24.9134 28.0904 25.1736 27.9418 25.4712C27.9195 25.5158 27.8989 25.5579 27.8792 25.5982C27.7676 25.826 27.6855 25.9936 27.4961 26.2147C27.4216 26.3017 27.3446 26.3954 27.2677 26.4892C27.1143 26.6759 26.961 26.8627 26.8275 26.9957C26.6043 27.2179 26.372 27.4591 26.6321 27.9053C26.8921 28.3516 27.7866 29.8112 29.1117 30.9931C30.5361 32.2636 31.7741 32.8006 32.4016 33.0728C32.5242 33.126 32.6234 33.169 32.6962 33.2055C33.1418 33.4287 33.4018 33.3913 33.6619 33.0939C33.9219 32.7965 34.7761 31.7923 35.0732 31.3462C35.3703 30.9001 35.6676 30.9744 36.0761 31.1231C36.4847 31.272 38.6762 32.3502 39.1219 32.5733C39.2089 32.6168 39.2903 32.6561 39.3657 32.6926Z" fill="black"/>
</svg>
